<?xml version="1.0" standalone="no"?>
<!DOCTYPE svg PUBLIC "-//W3C//DTD SVG 20010904//EN"
 "http://www.w3.org/TR/2001/REC-SVG-20010904/DTD/svg10.dtd">
<svg version="1.0" xmlns="http://www.w3.org/2000/svg"
 width="2946.000000pt" height="2946.000000pt" viewBox="0 0 2946.000000 2946.000000"
 preserveAspectRatio="xMidYMid meet">
<metadata>
Created by potrace 1.11, written by Peter Selinger 2001-2013
</metadata>
<g transform="translate(0.000000,2946.000000) scale(0.100000,-0.100000)"
fill="#000000" stroke="none">
<path d="M0 25335 l0 -4125 4125 0 4125 0 0 4125 0 4125 -4125 0 -4125 0 0
-4125z m7070 0 l0 -2945 -2945 0 -2945 0 0 2945 0 2945 2945 0 2945 0 0 -2945z"/>
<path d="M2360 25335 l0 -1765 1765 0 1765 0 0 1765 0 1765 -1765 0 -1765 0 0
-1765z"/>
<path d="M10600 28870 l0 -590 -585 0 -585 0 0 -590 0 -590 585 0 585 0 0
-585 0 -585 -585 0 -585 0 0 -590 0 -590 1175 0 1175 0 -2 -1631 -3 -1631
-176 -82 c-668 -313 -1311 -746 -1871 -1260 l-126 -116 -1266 0 -1266 0 0
-590 0 -590 590 0 590 0 0 -304 0 -305 -74 -143 c-40 -79 -102 -205 -137 -280
l-63 -138 -453 0 -453 0 0 -590 0 -590 256 0 c220 0 255 -2 251 -14 -15 -38
-81 -359 -112 -539 -33 -195 -75 -528 -75 -594 l0 -33 -160 0 -160 0 0 -590 0
-590 -1177 2 -1178 3 0 585 0 585 588 3 587 2 0 590 0 590 -590 0 -590 0 0
1175 0 1175 590 0 590 0 0 590 0 590 -2945 0 -2945 0 0 -590 0 -590 1180 0
1180 0 0 -585 0 -585 -1180 0 -1180 0 0 -590 0 -590 590 0 590 0 0 -590 0
-590 -590 0 -590 0 0 -2945 0 -2945 590 0 590 0 0 2355 0 2355 590 0 590 0 0
-1180 0 -1180 588 2 587 3 3 588 2 587 585 0 585 0 0 -590 0 -590 1633 0 1632
0 44 -103 c25 -56 87 -185 138 -286 l93 -184 0 -299 0 -298 -590 0 -590 0 0
-590 0 -590 1178 -2 1177 -3 3 -1177 2 -1178 590 0 590 0 0 764 0 765 163
-103 c633 -403 1333 -711 2045 -901 l142 -38 0 -834 0 -833 -590 0 -590 0 0
-590 0 -590 -585 0 -585 0 0 590 0 590 -590 0 -590 0 0 -2945 0 -2945 1180 0
1180 0 0 2355 0 2355 1175 0 1175 0 0 -1765 0 -1765 1180 0 1180 0 0 590 0
590 590 0 590 0 0 585 0 585 1175 0 1175 0 0 590 0 590 590 0 590 0 0 -590 0
-590 590 0 590 0 0 590 0 590 590 0 590 0 0 -1175 0 -1175 -2357 -2 -2358 -3
-3 -587 -2 -588 -588 -2 -587 -3 -3 -588 -2 -587 595 0 595 0 0 590 0 590
3530 0 3530 0 0 -590 0 -590 1770 0 1770 0 0 590 0 590 -590 0 -590 0 2 588 3
587 588 3 587 2 0 1175 0 1175 -1180 0 -1180 0 0 -585 0 -585 -587 -2 -588 -3
-3 -587 -2 -588 -585 0 -585 0 0 1175 0 1175 588 2 587 3 3 1178 2 1177 1765
0 1765 0 0 2945 0 2945 -1770 0 -1770 0 2 -587 3 -588 587 -3 588 -2 2 -588 3
-587 588 -3 587 -2 0 -1175 0 -1175 -1180 0 -1180 0 0 -590 0 -590 -585 0
-585 0 0 1180 0 1180 590 0 590 0 -2 588 -3 587 -2357 3 -2358 2 0 296 0 297
98 196 c54 108 117 238 139 289 l42 92 450 0 451 0 0 590 0 590 590 0 590 0 0
-590 0 -590 590 0 590 0 0 1180 0 1180 590 0 590 0 0 590 0 590 -1930 0 -1930
0 0 38 c0 137 -79 663 -145 957 -19 87 -35 165 -35 172 0 10 53 13 250 13
l250 0 0 585 0 585 590 0 590 0 0 -585 0 -585 590 0 590 0 0 1175 0 1175 588
2 587 3 3 588 2 587 -590 0 -590 0 0 -585 0 -585 -590 0 -590 0 0 585 0 585
-590 0 -590 0 0 -1175 0 -1175 -455 0 -454 0 -23 53 c-12 28 -73 155 -135 280
l-113 228 0 894 0 895 -587 2 -588 3 -3 1178 -2 1177 -585 0 -585 0 0 590 0
590 585 0 585 0 0 1180 0 1180 -1177 -2 -1178 -3 -3 -1177 -2 -1178 -1175 0
-1175 0 0 590 0 590 590 0 590 0 -2 588 -3 587 -587 3 -588 2 0 -590 0 -590
-590 0 -590 0 0 1175 0 1175 1770 0 1770 0 0 1180 0 1180 -590 0 -590 0 0
-590 0 -590 -1770 0 -1770 0 0 -590 0 -590 -585 0 -585 0 0 1180 0 1180 -595
0 -595 0 0 -590z m2360 -3535 l0 -585 -585 0 -585 0 0 585 0 585 585 0 585 0
0 -585z m1180 -1175 l0 -590 590 0 590 0 0 -590 0 -590 590 0 590 0 0 -251 c0
-234 -1 -250 -17 -245 -48 15 -297 68 -448 95 -205 37 -406 66 -583 82 l-132
13 0 153 0 153 -590 0 -590 0 0 -155 0 -155 -37 0 c-148 0 -695 -85 -1005
-156 -59 -13 -114 -24 -122 -24 -15 0 -16 135 -16 1418 0 780 3 1422 7 1425 3
4 269 7 590 7 l583 0 0 -590z m4710 -2541 c0 -613 -3 -769 -12 -763 -7 4 -44
28 -83 54 -263 175 -703 415 -1002 548 l-73 32 0 450 0 450 585 0 585 0 0
-771z m1180 -1674 c0 -47 -1 -85 -3 -85 -1 0 -40 38 -87 85 l-85 85 88 0 87 0
0 -85z m-5187 -511 c277 -69 387 -100 387 -110 0 -8 -61 -258 -135 -557 -74
-298 -146 -586 -159 -639 l-23 -97 116 -26 c64 -15 208 -49 320 -76 112 -27
205 -48 206 -47 1 2 73 289 160 638 87 349 161 639 166 644 7 8 786 -179 801
-193 3 -3 -67 -303 -157 -666 -90 -363 -163 -661 -162 -662 2 -1 61 -24 132
-51 510 -192 852 -390 1101 -637 302 -300 439 -678 395 -1090 -70 -646 -385
-1076 -911 -1240 -47 -15 -94 -30 -104 -34 -16 -6 -7 -14 50 -46 456 -253 724
-600 785 -1014 19 -134 6 -418 -26 -570 -61 -292 -197 -624 -346 -846 -92
-139 -266 -315 -397 -404 -411 -278 -952 -357 -1747 -256 -104 14 -250 35
-323 48 -73 13 -134 21 -136 18 -2 -3 -77 -304 -167 -668 -113 -459 -167 -663
-176 -663 -12 0 -761 185 -789 195 -8 2 42 220 152 661 91 361 161 660 157
664 -4 4 -82 26 -173 48 -91 23 -231 59 -312 81 l-148 39 -10 -38 c-6 -21 -80
-318 -164 -660 -84 -341 -156 -624 -159 -627 -7 -6 -787 186 -800 197 -4 4 67
307 159 674 92 367 164 669 162 672 -3 2 -368 96 -812 207 -443 111 -806 207
-806 212 1 24 397 920 407 918 5 -1 136 -34 289 -74 316 -81 405 -93 480 -64
57 21 116 74 149 129 17 28 106 368 291 1106 146 586 270 1083 274 1105 5 22
90 366 190 765 173 688 182 729 177 800 -6 103 -37 178 -102 248 -94 101 -166
130 -590 232 -143 35 -262 64 -264 66 -6 5 211 864 218 864 3 0 301 -74 661
-165 672 -170 960 -239 964 -233 1 1 76 301 166 665 135 542 167 662 180 658
8 -2 189 -48 403 -101z m-11313 -2349 l0 -585 -585 0 -585 0 0 585 0 585 585
0 585 0 0 -585z m0 -2355 l0 -590 -585 0 -585 0 0 590 0 590 585 0 585 0 0
-590z m3854 -612 c3 -13 8 -59 11 -103 17 -215 81 -619 140 -886 19 -86 35
-159 35 -162 0 -4 -112 -7 -250 -7 l-250 0 0 590 0 590 155 0 c152 0 155 0
159 -22z m2131 -4608 l80 -80 -83 0 -82 0 0 80 c0 44 1 80 3 80 1 0 38 -36 82
-80z m14053 -1853 l2 -1767 -1767 2 -1768 3 -3 1755 c-1 965 0 1761 3 1768 3
10 362 12 1767 10 l1763 -3 3 -1768z m-4718 -1002 l0 -1945 -585 0 -585 0 0
590 0 590 -590 0 -590 0 0 590 0 590 590 0 590 0 0 444 0 445 63 28 c293 130
689 346 997 545 58 37 106 68 108 68 1 0 2 -875 2 -1945z m-3530 -175 l0 -590
-590 0 -590 0 0 590 0 590 590 0 590 0 0 -590z m1180 -2945 l0 -1175 -590 0
-590 0 0 1175 0 1175 590 0 590 0 0 -1175z m11780 -590 l0 -585 -590 0 -590 0
0 -590 0 -590 -585 0 -585 0 0 590 0 590 585 0 585 0 0 585 0 585 590 0 590 0
0 -585z"/>
<path d="M14497 16283 c-108 -434 -197 -797 -199 -807 -4 -22 -19 -17 268 -91
512 -131 886 -173 1164 -130 359 54 576 236 650 545 25 105 27 265 4 354 -87
344 -470 608 -1140 787 -84 22 -539 129 -550 129 -1 0 -90 -354 -197 -787z"/>
<path d="M14084 14626 c-8 -24 -434 -1748 -434 -1759 0 -8 92 -36 243 -75 619
-160 936 -208 1302 -199 222 6 340 25 474 77 310 120 481 374 483 715 2 213
-78 383 -261 558 -218 208 -591 385 -1111 528 -259 70 -691 167 -696 155z"/>
<path d="M21210 7660 l0 -590 590 0 590 0 0 590 0 590 -590 0 -590 0 0 -590z"/>
<path d="M18850 28870 l0 -590 590 0 590 0 0 590 0 590 -590 0 -590 0 0 -590z"/>
<path d="M21210 25335 l0 -4125 4125 0 4125 0 0 4125 0 4125 -4125 0 -4125 0
0 -4125z m7070 0 l0 -2945 -2945 0 -2945 0 0 2945 0 2945 2945 0 2945 0 0
-2945z"/>
<path d="M23570 25335 l0 -1765 1765 0 1765 0 0 1765 0 1765 -1765 0 -1765 0
0 -1765z"/>
<path d="M9430 22390 l0 -1180 590 0 590 0 0 1180 0 1180 -590 0 -590 0 0
-1180z"/>
<path d="M27102 19443 l3 -588 587 -3 588 -2 2 -588 3 -587 588 -3 587 -2 0
595 0 595 -590 0 -590 0 0 585 0 585 -590 0 -590 0 2 -587z"/>
<path d="M25927 17673 c-4 -3 -7 -269 -7 -590 l0 -583 590 0 590 0 0 590 0
590 -583 0 c-321 0 -587 -3 -590 -7z"/>
<path d="M27100 14730 l0 -590 1180 0 1180 0 0 590 0 590 -1180 0 -1180 0 0
-590z"/>
<path d="M3537 10603 c-4 -3 -7 -269 -7 -590 l0 -583 590 0 590 0 0 590 0 590
-583 0 c-321 0 -587 -3 -590 -7z"/>
<path d="M0 4125 l0 -4125 4125 0 4125 0 0 4125 0 4125 -4125 0 -4125 0 0
-4125z m7070 0 l0 -2945 -2945 0 -2945 0 0 2945 0 2945 2945 0 2945 0 0 -2945z"/>
<path d="M2360 4125 l0 -1765 1765 0 1765 0 0 1765 0 1765 -1765 0 -1765 0 0
-1765z"/>
</g>
</svg>
