<?xml version="1.0" encoding="UTF-8"?>
<svg width="134px" height="40px" viewBox="0 0 134 40" version="1.1" xmlns="http://www.w3.org/2000/svg" xmlns:xlink="http://www.w3.org/1999/xlink">
    <!-- Generator: Sketch 52.1 (67048) - http://www.bohemiancoding.com/sketch -->
    <title>button-playstore</title>
    <desc>Created with Sketch.</desc>
    <defs>
        <radialGradient cx="50%" cy="50%" fx="50%" fy="50%" r="50%" gradientTransform="translate(0.500000,0.500000),scale(0.296296,1.000000),rotate(90.000000),scale(1.000000,3.375177),translate(-0.500000,-0.500000)" id="radialGradient-1">
            <stop stop-color="#FFFFFF" stop-opacity="0.0146625906" offset="0%"></stop>
            <stop stop-color="#FFFFFF" stop-opacity="0" offset="100%"></stop>
        </radialGradient>
        <linearGradient x1="60.1573701%" y1="91.8476975%" x2="33.5579439%" y2="-59.5891331%" id="linearGradient-2">
            <stop stop-color="#D6FFA1" offset="0%"></stop>
            <stop stop-color="#93E2A7" offset="32.64%"></stop>
            <stop stop-color="#00A3B5" offset="100%"></stop>
        </linearGradient>
        <linearGradient x1="-32.1721676%" y1="-129.73572%" x2="80.1668869%" y2="113.997954%" id="linearGradient-3">
            <stop stop-color="#FF177B" offset="0%"></stop>
            <stop stop-color="#FFA976" offset="67.21%"></stop>
            <stop stop-color="#FFEC73" offset="100%"></stop>
        </linearGradient>
        <linearGradient x1="50.8193668%" y1="74.6634124%" x2="-0.0289932314%" y2="-29.3364075%" id="linearGradient-4">
            <stop stop-color="#63FFD4" offset="0%"></stop>
            <stop stop-color="#32A0BA" offset="48.54%"></stop>
            <stop stop-color="#1262A9" offset="83.49%"></stop>
            <stop stop-color="#064AA2" offset="100%"></stop>
        </linearGradient>
        <linearGradient x1="119.507988%" y1="35.5351563%" x2="-23.112411%" y2="61.0134747%" id="linearGradient-5">
            <stop stop-color="#FF4521" offset="0%"></stop>
            <stop stop-color="#D43E65" offset="34.11%"></stop>
            <stop stop-color="#9F36B9" offset="79.35%"></stop>
            <stop stop-color="#8A33DB" offset="100%"></stop>
        </linearGradient>
    </defs>
    <g id="Page-1" stroke="none" stroke-width="1" fill="none" fill-rule="evenodd">
        <g id="Artboard" transform="translate(-807.000000, -1467.000000)">
            <g id="button-playstore" transform="translate(806.000000, 1467.000000)">
                <rect id="Rectangle-5" fill="url(#radialGradient-1)" x="0" y="0" width="135" height="40"></rect>
                <g id="icon-+-Google-play-+-Get-it-on" transform="translate(6.000000, 5.000000)">
                    <g id="google-play-icon">
                        <polygon id="Shape" points="16.0768306 15.2399292 20.7805322 10.4452891 16.0768306 15.2399292 0.912658508 0.00989605792 16.0768306 15.2399292 0.912658508 30.4699623 16.0768306 15.2399292 20.8507367 20.0345693"></polygon>
                        <path d="M20.7805322,10.4452891 L2.31674852,0.291933709 C1.82531702,0.00989605792 1.33388551,-0.0606133548 0.912658508,0.0804054706 L16.0768306,15.2399292 L20.7805322,10.4452891 L20.7805322,10.4452891 Z" id="Shape" fill="url(#linearGradient-2)"></path>
                        <path d="M20.8507367,20.0345693 L27.1691417,16.579608 C28.4328228,15.8745139 28.4328228,14.7463633 27.1691417,14.0412692 L20.8507367,10.5157986 L16.0768306,15.2399292 L20.8507367,20.0345693 L20.8507367,20.0345693 Z" id="Shape" fill="url(#linearGradient-3)"></path>
                        <path d="M0.912658508,0.00989605792 C0.351022503,0.221424296 0,0.785499598 0,1.63161255 L0,28.8482459 C0,29.6943588 0.351022503,30.2584341 0.912658508,30.4699623 L16.0768306,15.2399292 L0.912658508,0.00989605792 L0.912658508,0.00989605792 Z" id="Shape" fill="url(#linearGradient-4)"></path>
                        <path d="M0.912658508,30.4699623 C1.33388551,30.6109812 1.82531702,30.5404718 2.31674852,30.2584341 L20.7805322,20.0345693 L16.0768306,15.2399292 L0.912658508,30.4699623 L0.912658508,30.4699623 Z" id="Shape" fill="url(#linearGradient-5)"></path>
                    </g>
                    <g id="google-play" transform="translate(34.337919, 13.392000)" fill="#FFFFFF">
                        <polyline id="Fill-3" points="83.3607818 16.864 88.9327388 3.968 87.1179901 3.968 84.5407453 10.3976681 84.5043164 10.3976681 81.8546324 3.968 80.0394649 3.968 83.7058102 12.3522332 81.6368961 16.864 83.3607818 16.864"></polyline>
                        <path d="M75.592828,3.968 C73.3628428,3.968 72.292818,5.30417042 71.9849453,6.11636878 L73.5075764,6.76612746 C73.8158674,5.93560258 74.7043477,5.48452011 75.6292206,5.48452011 C76.8803715,5.48452011 77.949978,6.29671847 77.949978,7.63288889 L77.949978,7.88571166 C77.6052945,7.68703545 76.7352196,7.34382958 75.5384483,7.34382958 C73.4531967,7.34382958 71.6402618,8.42717723 71.6402618,10.4310164 C71.6402618,12.2728323 73.1449058,13.392 74.958259,13.392 C76.4813083,13.392 77.3877758,12.6156217 77.8771929,11.8754799 L77.949978,11.8754799 L77.949978,13.1029407 L79.5453942,13.1029407 L79.5453942,7.75909202 C79.5453942,5.26793388 77.7684335,3.968 75.592828,3.968 L75.592828,3.968 Z M75.2301574,11.8754799 C74.3600825,11.8754799 73.3808299,11.4060709 73.3808299,10.4672529 C73.3808299,9.65463803 74.0697786,8.71623654 75.8287522,8.71623654 C77.2426239,8.71623654 77.949978,9.29352214 77.949978,9.29352214 C77.949978,10.7379857 76.5536751,11.8754799 75.2301574,11.8754799 L75.2301574,11.8754799 Z" id="Fill-2"></path>
                        <polygon id="Fill-1" points="69.169908 0.496 70.6521203 0.496 70.6521203 13.392 69.169908 13.392"></polygon>
                        <path d="M63.6677872,0.496 L59.2884926,0.496 L59.2884926,13.392 L60.9396816,13.392 L60.9396816,8.16877719 L63.6677872,8.16877719 C65.8029884,8.16877719 67.6876957,6.58394252 67.6876957,4.33259636 C67.6876957,2.0812502 65.8029884,0.496 63.6677872,0.496 L63.6677872,0.496 Z M63.7033946,6.58394252 L60.9396816,6.58394252 L60.9396816,2.0812502 L63.7033946,2.0812502 C65.1748906,2.0812502 66.0004851,3.30581962 66.0004851,4.33259636 C66.0004851,5.35895756 65.1748906,6.58394252 63.7033946,6.58394252 L63.7033946,6.58394252 Z" id="Fill-4"></path>
                        <path d="M47.6707069,9.00052327 C47.6208339,7.32501408 48.983614,6.47124358 49.96445,6.47124358 C50.7291696,6.47124358 51.3771032,6.84905448 51.5932196,7.39072032 L47.6707069,9.00052327 L47.6707069,9.00052327 Z M50.1140691,13.4677264 C52.1251985,13.4677264 53.2884866,12.252161 53.7705924,11.5462295 L52.2748175,10.5606359 C51.7760873,11.2834045 51.0944894,11.7597748 50.1140691,11.7597748 C49.1332331,11.7597748 48.4350109,11.3162577 47.9865693,10.4456499 L53.8537141,8.04778275 L53.654222,7.55498592 C53.2884866,6.58622951 52.1750715,4.79573439 49.8979527,4.79573439 C47.6374582,4.79573439 45.7593235,6.55337639 45.7593235,9.13193575 C45.7593235,11.5626561 47.6208339,13.4677264 50.1140691,13.4677264 L50.1140691,13.4677264 Z" id="Fill-5"></path>
                        <polygon id="Path" points="42.9003529 13.2049015 44.8283606 13.2049015 44.8283606 0.459943699 42.9003529 0.459943699"></polygon>
                        <path d="M37.398528,17.36 C35.2710282,17.36 33.9909542,15.9477264 33.5088483,14.7978672 L35.1879066,14.1083623 C35.4871447,14.8142938 36.2181999,15.6520484 37.398528,15.6520484 C38.8444299,15.6520484 39.7421441,14.7650141 39.7421441,13.1063421 L39.7421441,12.4821328 L39.6756468,12.4821328 C39.243414,13.0077827 38.412197,13.4677264 37.3652793,13.4677264 C35.1712822,13.4677264 33.1601528,11.5790826 33.1601528,9.14836231 C33.1601528,6.70121543 35.1712822,4.79573439 37.3652793,4.79573439 C38.412197,4.79573439 39.243414,5.25567809 39.6756468,5.76490147 L39.7421441,5.76490147 L39.7421441,5.05855936 L41.5704058,5.05855936 L41.5704058,12.8435171 C41.5704058,16.0462858 39.6590225,17.36 37.398528,17.36 Z M37.5315227,11.7597748 C38.8444299,11.7597748 39.8751389,10.6591952 39.8751389,9.14836231 C39.8751389,7.62069217 38.8444299,6.5040967 37.5315227,6.5040967 C36.2015756,6.5040967 35.0881605,7.62069217 35.0881605,9.14836231 C35.0881605,10.6591952 36.2015756,11.7597748 37.5315227,11.7597748 Z" id="Path"></path>
                        <path d="M27.957566,13.4677264 C25.5308282,13.4677264 23.5529475,11.6283623 23.5529475,9.13193575 C23.5529475,6.61908263 25.5308282,4.79573439 27.957566,4.79573439 C30.3843039,4.79573439 32.3621846,6.61908263 32.3621846,9.13193575 C32.3621846,11.6283623 30.3843039,13.4677264 27.957566,13.4677264 Z M27.957566,11.7597748 C29.2870975,11.7597748 30.4341769,10.6756218 30.4341769,9.13193575 C30.4341769,7.57141249 29.2870975,6.5040967 27.957566,6.5040967 C26.6276189,6.5040967 25.4809552,7.57141249 25.4809552,9.13193575 C25.4809552,10.6756218 26.6276189,11.7597748 27.957566,11.7597748 Z" id="Path"></path>
                        <path d="M18.3503607,13.4677264 C15.9236228,13.4677264 13.9453265,11.6283623 13.9453265,9.13193575 C13.9453265,6.61908263 15.9236228,4.79573439 18.3503607,4.79573439 C20.7770985,4.79573439 22.7549792,6.61908263 22.7549792,9.13193575 C22.7549792,11.6283623 20.7770985,13.4677264 18.3503607,13.4677264 Z M18.3503607,11.7597748 C19.6798922,11.7597748 20.8269715,10.6756218 20.8269715,9.13193575 C20.8269715,7.57141249 19.6798922,6.5040967 18.3503607,6.5040967 C17.0204136,6.5040967 15.8737498,7.57141249 15.8737498,9.13193575 C15.8737498,10.6756218 17.0204136,11.7597748 18.3503607,11.7597748 Z" id="Path"></path>
                        <path d="M6.91447808,13.4677264 C8.94264741,13.4677264 10.471671,12.810664 11.6682077,11.5790826 C12.8984088,10.3635171 13.2807686,8.65556549 13.2807686,7.27573439 C13.2807686,6.84905448 13.2475199,6.45481702 13.1810226,6.12628581 L6.91447808,6.12628581 L6.91447808,7.96564994 L11.3689696,7.96564994 C11.2359749,9.00052327 10.8872794,9.75573439 10.3553006,10.2813843 C9.70695138,10.9220202 8.69286672,11.6283623 6.91447808,11.6283623 C4.1718778,11.6283623 2.02775372,9.4440404 2.02775372,6.73406855 C2.02775372,4.0240967 4.1718778,1.8397748 6.91447808,1.8397748 C8.39404423,1.8397748 9.47421064,2.41429376 10.2721789,3.15348899 L11.585086,1.85620136 C10.471671,0.804901474 8.99210481,0 6.91447808,0 C3.15820875,0 0,3.0220765 0,6.73406855 C0,10.4456499 3.15820875,13.4677264 6.91447808,13.4677264 L6.91447808,13.4677264 Z" id="Path"></path>
                    </g>
                    <path d="M38.8077151,6.60842604 C38.7485293,6.68592643 38.666185,6.7718214 38.5606797,6.86611354 C38.4551745,6.96040568 38.3194351,7.04823813 38.1534573,7.12961354 C37.9874796,7.21098895 37.788052,7.2794466 37.5551685,7.33498854 C37.322285,7.39053049 37.0488762,7.41830104 36.7349338,7.41830104 C36.382392,7.41830104 36.0588046,7.35759331 35.764162,7.23617604 C35.4695193,7.11475877 35.2166966,6.93909386 35.0056861,6.70917604 C34.7946757,6.47925822 34.6306304,6.19638605 34.5135453,5.86055104 C34.3964603,5.52471603 34.3379186,5.14109486 34.3379186,4.70967604 L34.3379186,4.33767604 C34.3379186,3.90884056 34.3906704,3.52586523 34.4961756,3.18873854 C34.6016809,2.85161186 34.7535032,2.5668022 34.9516471,2.33430104 C35.1497911,2.10179988 35.3916775,1.92484331 35.6773136,1.80342604 C35.9629497,1.68200877 36.2871804,1.62130104 36.6500154,1.62130104 C36.9922641,1.62130104 37.2907622,1.6658631 37.5455187,1.75498854 C37.8002752,1.84411399 38.0151424,1.96875857 38.1901266,2.12892604 C38.3651109,2.28909351 38.5027803,2.47961244 38.6031389,2.70048854 C38.7034976,2.92136465 38.7704023,3.16354972 38.8038552,3.42705104 L37.8465931,3.42705104 C37.8234334,3.2798003 37.7848345,3.14417666 37.7307952,3.02017604 C37.676756,2.89617542 37.6027748,2.78896816 37.5088494,2.69855104 C37.414924,2.60813392 37.2991273,2.53709297 37.1614559,2.48542604 C37.0237844,2.43375912 36.8597391,2.40792604 36.6693151,2.40792604 C36.4402915,2.40792604 36.2415072,2.45055061 36.0729562,2.53580104 C35.9044052,2.62105147 35.7641625,2.74569605 35.6522241,2.90973854 C35.5402856,3.07378103 35.4566547,3.27527901 35.4013287,3.51423854 C35.3460028,3.75319807 35.3183403,4.02509118 35.3183403,4.32992604 L35.3183403,4.70967604 C35.3183403,5.01967759 35.3517927,5.29415401 35.4186984,5.53311354 C35.4856042,5.77207307 35.5814581,5.97292523 35.706263,6.13567604 C35.831068,6.29842685 35.9828903,6.42242561 36.1617345,6.50767604 C36.3405788,6.59292647 36.5432229,6.63555104 36.7696732,6.63555104 C36.9369376,6.63555104 37.0803968,6.62457198 37.2000551,6.60261354 C37.3197135,6.5806551 37.4207139,6.55288454 37.5030595,6.51930104 C37.585405,6.48571754 37.6529531,6.44890541 37.7057057,6.40886354 C37.7584583,6.36882167 37.8015604,6.33071789 37.8350133,6.29455104 L37.8350133,5.19017604 L36.6770349,5.19017604 L36.6770349,4.44617604 L38.8077151,4.44617604 L38.8077151,6.60842604 Z M43.1655737,4.82205104 L40.8573368,4.82205104 L40.8573368,6.55805104 L43.5554264,6.55805104 L43.5554264,7.34080104 L39.8807751,7.34080104 L39.8807751,1.69880104 L43.5284069,1.69880104 L43.5284069,2.48930104 L40.8573368,2.48930104 L40.8573368,4.04705104 L43.1655737,4.04705104 L43.1655737,4.82205104 Z M48.4112157,2.48930104 L46.6588085,2.48930104 L46.6588085,7.34080104 L45.6899666,7.34080104 L45.6899666,2.48930104 L43.952999,2.48930104 L43.952999,1.69880104 L48.4112157,1.69880104 L48.4112157,2.48930104 Z M52.1476259,7.34080104 L51.1749241,7.34080104 L51.1749241,1.69880104 L52.1476259,1.69880104 L52.1476259,7.34080104 Z M57.4087077,2.48930104 L55.6563004,2.48930104 L55.6563004,7.34080104 L54.6874585,7.34080104 L54.6874585,2.48930104 L52.9504909,2.48930104 L52.9504909,1.69880104 L57.4087077,1.69880104 L57.4087077,2.48930104 Z M64.5997533,4.66705104 C64.5997533,5.09588652 64.5437849,5.48015351 64.4318465,5.81986354 C64.319908,6.15957357 64.1622959,6.44761236 63.9590053,6.68398854 C63.7557148,6.92036472 63.5112551,7.10184207 63.225619,7.22842604 C62.9399829,7.35501001 62.623472,7.41830104 62.2760767,7.41830104 C61.9312548,7.41830104 61.6160305,7.35501001 61.3303944,7.22842604 C61.0447583,7.10184207 60.7983687,6.92036472 60.5912182,6.68398854 C60.3840677,6.44761236 60.223239,6.15957357 60.1087272,5.81986354 C59.9942155,5.48015351 59.9369604,5.09588652 59.9369604,4.66705104 L59.9369604,4.38030104 C59.9369604,3.95146556 59.9942155,3.56655275 60.1087272,3.22555104 C60.223239,2.88454934 60.3827811,2.5952189 60.5873583,2.35755104 C60.7919355,2.11988319 61.0370385,1.93776001 61.3226746,1.81117604 C61.6083106,1.68459207 61.9235349,1.62130104 62.2683569,1.62130104 C62.6157521,1.62130104 62.9329064,1.68459207 63.2198291,1.81117604 C63.5067519,1.93776001 63.7524981,2.11988319 63.9570753,2.35755104 C64.1616526,2.5952189 64.319908,2.88454934 64.4318465,3.22555104 C64.5437849,3.56655275 64.5997533,3.95146556 64.5997533,4.38030104 L64.5997533,4.66705104 Z M63.6231916,4.37255104 C63.6231916,4.0573828 63.5929558,3.77903142 63.5324833,3.53748854 C63.4720108,3.29594567 63.3838766,3.09380185 63.2680782,2.93105104 C63.1522798,2.76830023 63.0101072,2.64494729 62.8415562,2.56098854 C62.6730052,2.47702979 62.4819406,2.43505104 62.2683569,2.43505104 C62.0599197,2.43505104 61.8720718,2.47702979 61.7048074,2.56098854 C61.537543,2.64494729 61.3953705,2.76830023 61.2782854,2.93105104 C61.1612003,3.09380185 61.0711362,3.29594567 61.0080904,3.53748854 C60.9450446,3.77903142 60.9135222,4.0573828 60.9135222,4.37255104 L60.9135222,4.66705104 C60.9135222,4.98221928 60.9450446,5.26121649 61.0080904,5.50405104 C61.0711362,5.74688559 61.1618436,5.95032105 61.2802153,6.11436354 C61.3985871,6.27840603 61.5420463,6.40240479 61.7105973,6.48636354 C61.8791483,6.57032229 62.0676396,6.61230104 62.2760767,6.61230104 C62.7083908,6.61230104 63.0409846,6.44696936 63.2738681,6.11630104 C63.5067516,5.78563272 63.6231916,5.30255422 63.6231916,4.66705104 L63.6231916,4.37255104 Z M70.0306719,7.34080104 L69.0541101,7.34080104 L66.5490169,3.33792604 L66.5490169,7.34080104 L65.5724552,7.34080104 L65.5724552,1.69880104 L66.5490169,1.69880104 L69.06183,5.71717604 L69.06183,1.69880104 L70.0306719,1.69880104 L70.0306719,7.34080104 Z" id="GET-IT-ON" fill="#FFFFFF"></path>
                </g>
            </g>
        </g>
    </g>
</svg>