<svg version="1.1" id="Laag_1" xmlns="http://www.w3.org/2000/svg" x="0" y="0" viewBox="0 0 134 40" xml:space="preserve"><style>.st0{fill:#fff}</style><path class="st0" d="M6.3 5.5V26h32.8V5.5H6.3zM37.1 24H8.4V7.6h28.7V24zm-9.2 4.1H17.6l-1 4.1-2 2h16.3l-2-2-1-4.1zM49.9 7.5h3.6c.7 0 1.2.1 1.7.3s.9.5 1.2.9c.3.4.5.8.7 1.4.1.5.2 1.1.2 1.7 0 .6-.1 1.1-.2 1.7-.1.5-.4 1-.7 1.4-.3.4-.7.7-1.2.9s-1 .3-1.7.3h-3.6V7.5zm1.5 7.4h1.5c.6 0 1.1-.1 1.4-.2.4-.2.7-.4.9-.6.2-.3.4-.6.4-1s.1-.8.1-1.2c0-.4 0-.8-.1-1.2-.1-.4-.2-.7-.4-1-.2-.3-.5-.6-.8-.7-.4-.2-.9-.2-1.4-.2h-1.5v6.1zM61.1 16.3c-.5 0-.9-.1-1.3-.2-.4-.2-.7-.4-1-.7s-.5-.6-.6-1c-.2-.5-.2-.9-.2-1.4 0-.5.1-.9.2-1.3s.3-.7.6-1c.3-.3.6-.5 1-.7.4-.2.8-.2 1.3-.2s.9 0 1.3.2.7.4 1 .7c.3.3.5.6.6 1s.2.8.2 1.3-.1.9-.2 1.3-.3.7-.6 1-.6.5-1 .7c-.4.2-.8.3-1.3.3zm0-1.1c.3 0 .6-.1.8-.2s.4-.3.6-.5c.1-.2.2-.4.3-.7.1-.3.1-.5.1-.8 0-.3 0-.5-.1-.8-.1-.3-.2-.5-.3-.7-.1-.2-.3-.4-.6-.5s-.5-.2-.8-.2-.6.1-.8.2-.4.3-.6.5c-.1.2-.3.4-.3.7-.1.3-.1.5-.1.8 0 .3 0 .5.1.8.1.3.2.5.3.7.1.2.3.4.6.5s.5.2.8.2zM64.6 9.9h1.5l1.2 4.6 1.2-4.6h1.4l1.1 4.6 1.3-4.6h1.4l-1.9 6.2h-1.4l-1.2-4.6-1.2 4.6h-1.4l-2-6.2zM74.4 9.9h1.3v.9c.2-.3.5-.6.8-.8.3-.2.7-.3 1.1-.3.7 0 1.2.2 1.6.5.4.4.6.9.6 1.6v4.3h-1.4v-3.9c0-.5-.1-.8-.3-1.1-.2-.2-.5-.3-.9-.3-.2 0-.4 0-.6.1-.2.1-.3.2-.5.3s-.2.3-.3.5c-.1.2-.1.4-.1.6V16h-1.4V9.9zM81.1 7.5h1.4v8.6h-1.4V7.5zM86.7 16.3c-.5 0-.9-.1-1.3-.2-.4-.2-.7-.4-1-.7-.3-.3-.5-.6-.6-1-.1-.4-.2-.8-.2-1.3s.1-.9.2-1.3.3-.7.6-1c.3-.3.6-.5 1-.7s.8-.2 1.3-.2.9-.1 1.3.1.7.4 1 .7c.3.3.5.6.6 1 .1.4.2.8.2 1.3s-.1.9-.2 1.3-.3.7-.6 1c-.3.3-.6.5-1 .7-.4.2-.9.3-1.3.3zm0-1.1c.3 0 .6-.1.8-.2.2-.1.4-.3.6-.5s.2-.4.3-.7c.1-.3.1-.5.1-.8 0-.3 0-.5-.1-.8-.1-.3-.2-.5-.3-.7s-.3-.4-.6-.5c-.2-.1-.5-.2-.8-.2-.3 0-.6.1-.8.2-.2.1-.4.3-.6.5-.1.2-.3.4-.3.7-.1.3-.1.5-.1.8 0 .3 0 .5.1.8.1.3.2.5.3.7.1.2.3.4.6.5.2.1.4.2.8.2zM96 14.7c0 .2 0 .3.1.4 0 .1.1.1.3.1H96.7v.9s-.1 0-.2.1-.2 0-.2.1h-.4c-.3 0-.5-.1-.7-.2s-.3-.3-.4-.6c-.3.3-.6.5-1 .6-.4.1-.8.2-1.1.2-.3 0-.5 0-.8-.1-.3-.1-.5-.2-.7-.3-.2-.1-.4-.3-.5-.6s-.2-.5-.2-.8c0-.4.1-.7.2-.9.1-.2.3-.4.6-.6.2-.1.5-.2.8-.3.3-.1.6-.1.9-.1.2 0 .5-.1.7-.1.2 0 .4-.1.6-.1.2 0 .3-.1.4-.2.1-.1.2-.2.2-.5 0-.2 0-.3-.1-.4l-.3-.3c-.1-.1-.3-.1-.4-.1h-.4c-.4 0-.7.1-.9.2-.2.2-.4.4-.4.7H91c0-.4.1-.7.3-1 .2-.3.4-.5.6-.6.3-.2.6-.3.9-.3s.7-.1 1-.1c.3 0 .6 0 .9.1s.6.2.8.3c.2.1.4.3.6.6.1.2.2.5.2.8v3.1zM94.6 13c-.2.1-.5.2-.8.2-.3 0-.6.1-.9.1-.1 0-.3.1-.4.1-.1 0-.3.1-.4.2-.1.1-.2.2-.2.3s-.1.3-.1.4c0 .2 0 .3.1.4s.2.2.3.2c.1.1.3.1.4.1h.4c.2 0 .3 0 .5-.1.2 0 .3-.1.5-.2s.3-.2.4-.4c.1-.1.2-.3.2-.5V13zM103.1 16.1h-1.3v-.8c-.2.4-.5.6-.8.8-.4.2-.7.2-1.1.2-.5 0-.9-.1-1.3-.3s-.7-.4-.9-.7c-.2-.3-.4-.6-.5-1-.2-.4-.2-.9-.2-1.3 0-.6.1-1 .2-1.5.2-.4.4-.7.6-1s.5-.5.9-.6.7-.2 1-.2c.2 0 .4 0 .6.1.2 0 .4.1.6.2.2.1.4.2.5.3l.4.4V7.5h1.4v8.6zm-4.8-3c0 .3 0 .5.1.8.1.3.2.5.3.7.1.2.3.4.5.5.2.1.5.2.8.2.3 0 .6-.1.8-.2s.4-.3.5-.5c.1-.2.2-.4.3-.7.1-.3.1-.5.1-.8 0-.7-.2-1.2-.5-1.6-.3-.4-.7-.6-1.3-.6-.3 0-.6.1-.8.2-.2.1-.4.3-.5.5-.1.2-.2.5-.3.7.1.2 0 .5 0 .8zM107 9.9h1v-.5c0-.4 0-.7.1-1 .1-.2.2-.4.4-.6.2-.1.3-.2.5-.3s.4-.1.6-.1c.4 0 .8 0 1 .1v1.1c-.1 0-.2 0-.3-.1h-.4c-.2 0-.3 0-.5.1-.1.1-.2.3-.2.5v.6h1.2v1h-1.2v5.2H108v-5.2h-1v-.8zM114 16.3c-.5 0-.9-.1-1.3-.2-.4-.2-.7-.4-1-.7s-.5-.6-.6-1c-.1-.4-.2-.8-.2-1.3s.1-.9.2-1.3.3-.7.6-1c.3-.3.6-.5 1-.7.4-.2.8-.2 1.3-.2s.9.1 1.3.2c.4.2.7.4 1 .7.3.3.5.6.6 1 .1.4.2.8.2 1.3s-.1.9-.2 1.3-.3.7-.6 1c-.3.3-.6.5-1 .7-.3.1-.8.2-1.3.2zm0-1.1c.3 0 .6-.1.8-.2.2-.1.4-.3.6-.5.1-.2.2-.4.3-.7.1-.3.1-.5.1-.8 0-.3 0-.5-.1-.8-.1-.3-.2-.5-.3-.7-.1-.2-.3-.4-.6-.5-.2-.1-.5-.2-.8-.2-.3 0-.6.1-.8.2-.2.1-.4.3-.6.5-.1.2-.2.4-.3.7-.1.3-.1.5-.1.8 0 .3 0 .5.1.8.1.3.2.5.3.7.1.2.3.4.6.5.3.1.5.2.8.2zM118.2 9.9h1.3v1.2c0-.2.1-.3.2-.5s.3-.3.4-.4c.2-.1.3-.2.5-.3.2-.1.4-.1.6-.1h.5v1.3h-.6c-.2 0-.4 0-.7.1-.2.1-.4.2-.5.4-.2.2-.3.4-.4.7-.1.3-.1.6-.1.9v3H118V9.9z"/><g><path class="st0" d="M50.1 20.2h4c.7 0 1.4.1 1.9.4.5.3 1 .6 1.3 1 .3.4.6 1 .8 1.5.2.6.3 1.2.3 1.9s-.1 1.3-.3 1.9c-.2.6-.4 1.1-.8 1.5-.3.4-.8.8-1.3 1-.5.3-1.2.4-1.9.4h-4v-9.6zm1.7 8.3h1.7c.7 0 1.2-.1 1.6-.3.4-.2.7-.4 1-.7s.4-.7.5-1.1c.1-.4.1-.9.1-1.4s0-.9-.1-1.4-.2-.8-.5-1.1-.6-.6-1-.7-1-.3-1.6-.3h-1.7v7zM60.6 26.7c0 .3 0 .5.1.8.1.3.2.5.3.7.2.2.3.3.6.5.2.1.5.2.8.2.5 0 .8-.1 1.1-.3s.5-.5.6-.9h1.5c-.1.4-.2.7-.4 1-.2.3-.4.5-.7.8s-.6.4-.9.5h-1.1c-.6 0-1-.1-1.5-.3-.4-.2-.8-.4-1.1-.8s-.5-.7-.7-1.2c-.1-.5-.2-.9-.2-1.5 0-.5.1-1 .2-1.4.2-.4.4-.8.7-1.2s.6-.6 1.1-.8c.4-.2.9-.3 1.4-.3.6 0 1 .1 1.5.3.4.2.8.5 1.1.9.3.4.5.8.6 1.3s.2 1 .1 1.5h-5.1zm3.6-1c0-.2-.1-.5-.2-.7-.1-.2-.2-.4-.4-.6-.1-.2-.3-.3-.5-.4-.2-.1-.4-.2-.7-.2-.3 0-.5 0-.7.1-.2.1-.4.2-.6.4-.2.2-.3.4-.4.6s-.1.5-.2.7h3.7zM67.9 27.6c0 .5.2.8.5.9.3.2.7.3 1.1.3h.5c.2 0 .4-.1.5-.1.2-.1.3-.2.4-.3.1-.1.2-.3.1-.5 0-.2-.1-.4-.2-.5-.1-.1-.3-.2-.5-.3-.2-.1-.5-.1-.7-.2-.3-.1-.5-.1-.8-.2-.3-.1-.6-.1-.8-.2-.3-.1-.5-.2-.7-.4-.2-.2-.4-.3-.5-.6s-.2-.5-.2-.9.1-.7.3-1c.2-.3.4-.5.7-.6.3-.2.6-.3.9-.3s.7-.1 1-.1c.4 0 .7 0 1 .1.3.1.6.2.9.4.3.2.5.4.7.7.2.3.3.6.3 1h-1.6c-.1-.4-.2-.6-.5-.7-.3-.1-.6-.2-.9-.2H69c-.1 0-.3.1-.4.1s-.2.1-.3.2c-.1.1-.1.2-.1.4s.1.3.2.5c.1.1.3.2.5.3.2.1.5.1.7.2.3.1.5.1.8.2.3.1.6.1.8.2.3.1.5.2.7.4s.4.3.5.6c.1.2.2.5.2.9s-.1.8-.3 1.1-.4.5-.7.7-.6.3-1 .4-.7-.1-1.1-.1c-.4 0-.9 0-1.2-.1-.4-.1-.7-.2-1-.5s-.5-.5-.6-.8c-.2-.3-.2-.7-.3-1.1h1.5zM73.7 20.2h1.5v5.5l2.8-2.8h1.9l-2.7 2.6 2.9 4.4h-1.9l-2.1-3.4-.9.9v2.5h-1.5v-9.7zM80 22.8h1.2v-2.1h1.5v2.1h1.4V24h-1.4V28.1c0 .1 0 .2.1.3 0 .1.1.1.2.2.1 0 .2.1.4.1h.6v1.2c-.2 0-.3 0-.5.1H83c-.4 0-.7 0-1-.1l-.6-.3c-.1-.1-.2-.3-.3-.6s-.1-.5-.1-.8V24h-1v-1.2zM88.2 30c-.6 0-1.1-.1-1.5-.3-.4-.2-.8-.4-1.1-.8-.3-.3-.5-.7-.7-1.2-.2-.5-.2-.9-.2-1.5 0-.5.1-1 .2-1.5.2-.5.4-.8.7-1.2.3-.3.7-.6 1.1-.8.4-.2.9-.3 1.5-.3s1.1.1 1.5.3c.4.2.8.4 1.1.8.3.3.5.7.7 1.2.2.5.2.9.2 1.5 0 .5-.1 1-.2 1.5-.2.5-.4.8-.7 1.2-.3.3-.7.6-1.1.8-.4.2-.9.3-1.5.3zm0-1.2c.3 0 .6-.1.9-.2s.5-.3.6-.6c.2-.2.3-.5.4-.8.1-.3.1-.6.1-.9 0-.3 0-.6-.1-.9-.1-.3-.2-.6-.4-.8l-.6-.6c-.2-.2-.6-.2-.9-.2s-.6.1-.9.2-.5.3-.6.6c-.2.2-.3.5-.4.8-.1.3-.1.6-.1.9 0 .3 0 .6.1.9.1.3.2.6.4.8l.6.6c.2.2.6.2.9.2zM92.9 22.8h1.5v.9c.2-.4.5-.7.9-.9.4-.2.8-.3 1.3-.3.6 0 1 .1 1.4.3.4.2.8.5 1 .8.3.3.5.7.6 1.2.1.5.2.9.2 1.4 0 .5-.1.9-.2 1.4-.1.4-.3.8-.6 1.2-.2.3-.6.6-.9.8-.4.2-.8.3-1.3.3-.2 0-.5 0-.7-.1-.2 0-.4-.1-.6-.2l-.6-.3c-.2-.1-.3-.3-.4-.5v3.5H93v-9.5zm5.4 3.5c0-.3 0-.6-.1-.9-.1-.3-.2-.6-.4-.8l-.6-.6c-.2-.2-.5-.2-.8-.2-.7 0-1.1.2-1.5.7-.3.5-.5 1.1-.5 1.8 0 .4 0 .7.1 1 .1.3.2.6.4.8.2.2.4.4.6.5.2.1.5.2.8.2.4 0 .7-.1.9-.2s.4-.3.6-.6c.2-.2.3-.5.3-.8.2-.3.2-.6.2-.9z"/></g></svg>