<svg xmlns="http://www.w3.org/2000/svg" viewBox="0 0 888 899"><path d="M852.9 26.3c.5-3.5-28.7 14.8-28.2 14.1-.9 1.1-25.3 23.4-195.1 46-71.4 9.5-120.3 37.2-145.3 82.4-40.3 72.6-1.1 161 .6 164.7l1.6 3.5c-7.8 16.8-14.1 34.2-19.3 51.9-11.6-27.1-26.5-50.9-44.8-71.4 4.8-20.2 5-45.5-3.8-77.1-21.1-76.1-73.8-104.4-114.2-114.7-42.3-10.8-79.6-4.1-81.2-3.9l-.7.1c-1.8.4-44.8 10-90.8 38.1C69.2 198.3 31 252.7 21.3 317.2L16 353.5l35-11.1c2.7-.8 66.4-20.2 150.4 29.6 32.6 19.3 68.6 29 102 29 30.8 0 59.4-8.2 81.1-24.8 5.4-4.1 11.5-9.6 17.3-16.8 24.5 33 40.5 75.2 47.9 126.3-.8 9.5-1.3 19-1.7 28.4-70.6 10.5-187.2 47.6-280.8 173 0 0 59.9 179.7 264.3 183.3 204.4 3.5 194.6 0 194.6 0s137.6-7 126.6-183.3-241.3-176.6-241.3-176.6-5.9-.5-16.3-.4c-.2-2.7-.4-5.4-.7-8.1 3.2-52.1 13.1-97.9 29.5-136.7 38.8 24.8 75.7 37.3 110.6 37.3 18.5 0 36.4-3.5 53.7-10.5C824 336.9 862.7 78.4 866.5 50.6c.3-1.6-6.6 14.4.5-4.9s-14.1-19.4-14.1-19.4zM356.8 339.8C326.5 363 271 360 224.9 332.6c-54.8-32.5-103.6-40.3-137.8-40.3-4.4 0-8.6.1-12.5.4 34.8-95.2 149.9-124.1 157.2-125.8 8.8-1.5 114.1-16.6 142.6 85.9 2.3 8.3 4.2 17.5 4.9 26.9-93-63.9-206.9-45.3-210.2-45-31.7 13.8-17.6 42 7.1 41.7 24.4-.4 113.8-18 193.8 49.1-3.4 5.3-7.7 10.1-13.2 14.3zm314.2 9.9c-36 14.6-78.2 6.2-125.6-25 8.2-12.9 17.4-24.7 27.6-35.3 40.2-41.9 84-53.8 96.3-56.4.9-.1 2-.2 3.3-.6h.2c17-5.6 25.1-43.8-6-45.4-.6-2-66.2 9.2-124.4 68.3-9.2 9.4-17.6 19.3-25.2 29.6-6.1-25.6-9.9-63 7.3-94 17.7-31.7 55.1-51.6 111.2-59 79.7-10.6 138.5-23.2 176.8-37.9-18.8 88.1-63.2 223.8-141.5 255.7z" fill="#fff"/></svg>