<?xml version="1.0" encoding="UTF-8"?>
<svg width="134px" height="40px" viewBox="0 0 134 40" version="1.1" xmlns="http://www.w3.org/2000/svg" xmlns:xlink="http://www.w3.org/1999/xlink">
    <!-- Generator: Sketch 52.1 (67048) - http://www.bohemiancoding.com/sketch -->
    <title>button-appstore</title>
    <desc>Created with Sketch.</desc>
    <defs>
        <radialGradient cx="50%" cy="50%" fx="50%" fy="50%" r="50%" gradientTransform="translate(0.500000,0.500000),scale(0.296296,1.000000),rotate(90.000000),scale(1.000000,3.375177),translate(-0.500000,-0.500000)" id="radialGradient-1">
            <stop stop-color="#FFFFFF" stop-opacity="0.0146625906" offset="0%"></stop>
            <stop stop-color="#FFFFFF" stop-opacity="0" offset="100%"></stop>
        </radialGradient>
    </defs>
    <g id="Page-1" stroke="none" stroke-width="1" fill="none" fill-rule="evenodd">
        <g id="Artboard" transform="translate(-632.000000, -1467.000000)">
            <g id="button-appstore" transform="translate(631.000000, 1467.000000)">
                <rect id="Rectangle-5" fill="url(#radialGradient-1)" x="0" y="0" width="135" height="40"></rect>
                <g id="Group-13" transform="translate(11.000000, 4.000000)" fill="#FFFFFF">
                    <path d="M20.5799343,16.1229638 C20.6189035,20.6861875 24.5701404,22.1946619 24.6185566,22.2111996 C24.5949389,22.3175134 23.9997735,24.3882696 22.5177645,26.4909199 C21.2801983,28.3419609 19.983588,30.1516577 17.9241268,30.1847331 C15.9237098,30.2308024 15.2506061,29.0070127 12.956149,29.0070127 C10.6404361,29.0070127 9.92363966,30.1516577 8.00470363,30.2308024 C6.04325578,30.3028596 4.54471434,28.2545474 3.26227463,26.4200441 C0.698576082,22.6742552 -1.2971174,15.864267 1.3787651,11.2301674 C2.67537542,8.95741507 5.03950462,7.4938287 7.56659577,7.45484698 C9.53040539,7.414684 11.352509,8.7814067 12.5593721,8.7814067 C13.7426176,8.7814067 15.9957437,7.14653702 18.318542,7.39105871 C19.2904093,7.41940905 22.0560389,7.77496958 23.8403542,10.3772947 C23.6962864,10.463527 20.5456887,12.3157493 20.5799343,16.1229638 Z M16.8011064,4.92694155 C15.7241405,6.19798185 14.0012311,7.1701623 12.3231954,7.04494829 C12.103551,5.32975264 12.9537873,3.50588069 13.9055795,2.39312979 C14.9813646,1.13035834 16.8495227,0.162902938 18.3433405,0.096752142 C18.5393672,1.87927985 17.8331988,3.63581975 16.8011064,4.92694155 Z" id="Combined-Shape"></path>
                    <path d="M44.9636851,27.7714844 L43.8062769,24.4245384 L38.9837425,24.4245384 L37.8263343,27.7714844 L35.7833333,27.7714844 L40.3515886,15.3877841 L42.4735037,15.3877841 L47.041759,27.7714844 L44.9636851,27.7714844 Z M41.368705,17.4474432 L39.4835324,22.879794 L43.3064869,22.879794 L41.4213144,17.4474432 L41.368705,17.4474432 Z M53.0129334,18.5974195 C55.3540546,18.5974195 56.8972656,20.3996212 56.8972656,23.2573982 C56.8972656,26.1151752 55.3628229,27.9259588 53.0480064,27.9259588 C51.7240015,27.9259588 50.6718122,27.2908973 50.1457175,26.2868134 L50.1018763,26.2868134 L50.1018763,30.7579901 L48.2079355,30.7579901 L48.2079355,18.743312 L50.0404986,18.743312 L50.0404986,20.2966383 L50.0755716,20.2966383 C50.6192027,19.2582268 51.6801603,18.5974195 53.0129334,18.5974195 Z M52.5131435,26.3554687 C54.0125132,26.3554687 54.9507154,25.1540009 54.9507154,23.2573982 C54.9507154,21.3693774 54.0125132,20.1593277 52.5131435,20.1593277 C51.0663832,20.1593277 50.093108,21.3951231 50.093108,23.2573982 C50.093108,25.1368371 51.0576149,26.3554687 52.5131435,26.3554687 Z M63.1577921,18.5974195 C65.4989133,18.5974195 67.0421243,20.3996212 67.0421243,23.2573982 C67.0421243,26.1151752 65.5076815,27.9259588 63.192865,27.9259588 C61.8688601,27.9259588 60.8166708,27.2908973 60.2905762,26.2868134 L60.246735,26.2868134 L60.246735,30.7579901 L58.3527942,30.7579901 L58.3527942,18.743312 L60.1853572,18.743312 L60.1853572,20.2966383 L60.2204302,20.2966383 C60.7640614,19.2582268 61.8250189,18.5974195 63.1577921,18.5974195 Z M62.6580021,26.3554687 C64.1573719,26.3554687 65.0955741,25.1540009 65.0955741,23.2573982 C65.0955741,21.3693774 64.1573719,20.1593277 62.6580021,20.1593277 C61.2112418,20.1593277 60.2379667,21.3951231 60.2379667,23.2573982 C60.2379667,25.1368371 61.2024736,26.3554687 62.6580021,26.3554687 Z M71.8032809,24.3215554 L73.7410629,24.3215554 C73.8813548,25.5487689 75.1001408,26.3554687 76.7661072,26.3554687 C78.3619277,26.3554687 79.5105677,25.5487689 79.5105677,24.4417022 C79.5105677,23.4805279 78.8178764,22.9055398 77.1782147,22.5107718 L75.538553,22.1245857 C73.2149683,21.5753433 72.1364742,20.5111861 72.1364742,18.7862216 C72.1364742,16.6493253 74.0391832,15.1818182 76.7398025,15.1818182 C79.414117,15.1818182 81.2466801,16.6493253 81.3080578,18.7862216 L79.3965805,18.7862216 C79.2825933,17.5504261 78.2391723,16.8037997 76.7134978,16.8037997 C75.1878232,16.8037997 74.1444022,17.559008 74.1444022,18.6574929 C74.1444022,19.532848 74.8107887,20.0477628 76.4416822,20.4425308 L77.835833,20.7772254 C80.4312333,21.3779593 81.5097274,22.3992069 81.5097274,24.2099905 C81.5097274,26.527107 79.6245549,27.9774503 76.6258153,27.9774503 C73.8199771,27.9774503 71.9260364,26.5614347 71.8032809,24.3215554 Z M83.5965695,16.6064157 L85.4992786,16.6064157 L85.4992786,18.743312 L87.2529274,18.743312 L87.2529274,20.2108191 L85.4992786,20.2108191 L85.4992786,25.1883286 C85.4992786,25.9692827 85.8500083,26.3211411 86.6216138,26.3211411 C86.8145152,26.3211411 87.1214038,26.3039773 87.2441592,26.2782315 L87.2441592,27.7457386 C87.0337213,27.7972301 86.6128456,27.8315578 86.1919699,27.8315578 C84.3243338,27.8315578 83.5965695,27.1364228 83.5965695,25.3942945 L83.5965695,20.2108191 L82.2550282,20.2108191 L82.2550282,18.743312 L83.5965695,18.743312 L83.5965695,16.6064157 Z M92.7681531,27.9431226 C90.1289115,27.9431226 88.3927992,26.1666667 88.3927992,23.2573982 C88.3927992,20.3567116 90.1376798,18.5802557 92.7681531,18.5802557 C95.3986264,18.5802557 97.143507,20.3567116 97.143507,23.2573982 C97.143507,26.1666667 95.4073946,27.9431226 92.7681531,27.9431226 Z M92.7681531,26.4155421 C94.2587546,26.4155421 95.2144932,25.2655658 95.2144932,23.2573982 C95.2144932,21.2578125 94.2499864,20.1078362 92.7681531,20.1078362 C91.2863198,20.1078362 90.3218129,21.2578125 90.3218129,23.2573982 C90.3218129,25.2655658 91.2863198,26.4155421 92.7681531,26.4155421 Z M98.6078038,27.7714844 L98.6078038,18.743312 L100.414062,18.743312 L100.414062,20.2794744 L100.457903,20.2794744 C100.764792,19.2238991 101.589007,18.5974195 102.676269,18.5974195 C102.948085,18.5974195 103.184827,18.6403291 103.325119,18.6660748 L103.325119,20.3910393 C103.176059,20.3309659 102.842866,20.2880563 102.4746,20.2880563 C101.255814,20.2880563 100.501745,21.0861742 100.501745,22.3648793 L100.501745,27.7714844 L98.6078038,27.7714844 Z M108.358091,20.0735085 C107.034087,20.0735085 106.104653,21.0604285 106.008202,22.4249527 L110.620298,22.4249527 C110.576457,21.0432647 109.682096,20.0735085 108.358091,20.0735085 Z M110.61153,25.1196733 L112.40902,25.1196733 C112.145973,26.7674006 110.550153,27.9431226 108.437006,27.9431226 C105.727618,27.9431226 104.087956,26.1495028 104.087956,23.3003078 C104.087956,20.4682765 105.753923,18.5802557 108.358091,18.5802557 C110.918419,18.5802557 112.514239,20.3481297 112.514239,23.0857599 L112.514239,23.7208215 L105.999434,23.7208215 L105.999434,23.8323864 C105.999434,25.4028764 106.963941,26.4412879 108.480847,26.4412879 C109.559341,26.4412879 110.357251,25.9092093 110.61153,25.1196733 Z" id="App-Store"></path>
                    <path d="M37.3538863,3.05257161 L39.9282963,3.05257161 C42.0980839,3.05257161 43.38276,4.38460286 43.38276,6.68033854 C43.38276,8.98111979 42.1031417,10.3333333 39.9282963,10.3333333 L37.3538863,10.3333333 L37.3538863,3.05257161 Z M38.486829,4.02636719 L38.486829,9.35449219 L39.8220829,9.35449219 C41.3697636,9.35449219 42.2245284,8.41097005 42.2245284,6.69042969 C42.2245284,4.9749349 41.3647058,4.02636719 39.8220829,4.02636719 L38.486829,4.02636719 Z M46.596402,10.4342448 C45.0740102,10.4342448 44.0725698,9.3898112 44.0725698,7.67936198 C44.0725698,5.97395833 45.079068,4.92952474 46.596402,4.92952474 C48.1137359,4.92952474 49.1202342,5.97395833 49.1202342,7.67936198 C49.1202342,9.3898112 48.1187937,10.4342448 46.596402,10.4342448 Z M46.596402,9.53613281 C47.4562245,9.53613281 48.0075226,8.86002604 48.0075226,7.67936198 C48.0075226,6.50374349 47.4511668,5.82763672 46.596402,5.82763672 C45.7416371,5.82763672 45.1852814,6.50374349 45.1852814,7.67936198 C45.1852814,8.86002604 45.7416371,9.53613281 46.596402,9.53613281 Z M56.9465714,5.02539062 L55.4899308,10.3333333 L54.3519303,10.3333333 L53.234161,6.35742188 L53.2088721,6.35742188 L52.1012183,10.3333333 L50.9733333,10.3333333 L49.5116349,5.02539062 L50.6041154,5.02539062 L51.5752091,9.203125 L51.5954403,9.203125 L52.7030941,5.02539062 L53.7551123,5.02539062 L54.8678239,9.203125 L54.8931128,9.203125 L55.8642065,5.02539062 L56.9465714,5.02539062 Z M57.595919,10.3333333 L57.595919,5.02539062 L58.6378217,5.02539062 L58.6378217,5.91341146 L58.6631106,5.91341146 C58.951404,5.30794271 59.5178754,4.93457031 60.3372357,4.93457031 C61.5106407,4.93457031 62.1833254,5.6813151 62.1833254,6.89729818 L62.1833254,10.3333333 L61.0857871,10.3333333 L61.0857871,7.10921224 C61.0857871,6.31201172 60.7115114,5.87304688 59.9528444,5.87304688 C59.1840619,5.87304688 58.6883995,6.41796875 58.6883995,7.24039714 L58.6883995,10.3333333 L57.595919,10.3333333 Z M63.2575265,10.3333333 L63.2575265,3.05257161 L64.3500069,3.05257161 L64.3500069,10.3333333 L63.2575265,10.3333333 Z M67.7406712,10.4342448 C66.2182794,10.4342448 65.216839,9.3898112 65.216839,7.67936198 C65.216839,5.97395833 66.2233372,4.92952474 67.7406712,4.92952474 C69.2580052,4.92952474 70.2645034,5.97395833 70.2645034,7.67936198 C70.2645034,9.3898112 69.263063,10.4342448 67.7406712,10.4342448 Z M67.7406712,9.53613281 C68.6004938,9.53613281 69.1517918,8.86002604 69.1517918,7.67936198 C69.1517918,6.50374349 68.595436,5.82763672 67.7406712,5.82763672 C66.8859064,5.82763672 66.3295506,6.50374349 66.3295506,7.67936198 C66.3295506,8.86002604 66.8859064,9.53613281 67.7406712,9.53613281 Z M72.9521363,9.56136068 C73.715861,9.56136068 74.3126791,9.03662109 74.3126791,8.3453776 L74.3126791,7.92659505 L73.0027141,8.00732422 C72.3502604,8.05273438 71.9810425,8.34033203 71.9810425,8.79443359 C71.9810425,9.2586263 72.3654338,9.56136068 72.9521363,9.56136068 Z M72.6486695,10.4241536 C71.6067668,10.4241536 70.8784465,9.77832031 70.8784465,8.82470703 C70.8784465,7.89632161 71.5915934,7.32617188 72.8560384,7.25553385 L74.3126791,7.16975911 L74.3126791,6.76106771 C74.3126791,6.17073568 73.9131144,5.81754557 73.2454875,5.81754557 C72.613265,5.81754557 72.2187582,6.12027995 72.1226603,6.5945638 L71.0908732,6.5945638 C71.1515666,5.63590495 71.9709269,4.92952474 73.2859497,4.92952474 C74.5756836,4.92952474 75.4001017,5.61067708 75.4001017,6.67529297 L75.4001017,10.3333333 L74.3531413,10.3333333 L74.3531413,9.46044922 L74.3278524,9.46044922 C74.0193278,10.0507812 73.3466431,10.4241536 72.6486695,10.4241536 Z M78.4367214,10.4241536 C77.091352,10.4241536 76.2011827,9.35449219 76.2011827,7.67936198 C76.2011827,6.00423177 77.091352,4.93961589 78.4266059,4.93961589 C79.1903306,4.93961589 79.7972642,5.32307943 80.0956732,5.90836589 L80.1159044,5.90836589 L80.1159044,3.05257161 L81.2134426,3.05257161 L81.2134426,10.3333333 L80.1513088,10.3333333 L80.1513088,9.43017578 L80.1310777,9.43017578 C79.8174954,10.0356445 79.2105618,10.4241536 78.4367214,10.4241536 Z M78.7250149,5.85791016 C77.8601345,5.85791016 77.3189521,6.56429036 77.3189521,7.67936198 C77.3189521,8.79947917 77.8601345,9.5008138 78.7250149,9.5008138 C79.5646064,9.5008138 80.1260199,8.78938802 80.1260199,7.67936198 C80.1260199,6.57942708 79.5646064,5.85791016 78.7250149,5.85791016 Z M86.6797484,10.4342448 C85.1573566,10.4342448 84.1559162,9.3898112 84.1559162,7.67936198 C84.1559162,5.97395833 85.1624144,4.92952474 86.6797484,4.92952474 C88.1970824,4.92952474 89.2035806,5.97395833 89.2035806,7.67936198 C89.2035806,9.3898112 88.2021401,10.4342448 86.6797484,10.4342448 Z M86.6797484,9.53613281 C87.539571,9.53613281 88.090869,8.86002604 88.090869,7.67936198 C88.090869,6.50374349 87.5345132,5.82763672 86.6797484,5.82763672 C85.8249836,5.82763672 85.2686278,6.50374349 85.2686278,7.67936198 C85.2686278,8.86002604 85.8249836,9.53613281 86.6797484,9.53613281 Z M90.0299504,10.3333333 L90.0299504,5.02539062 L91.0718531,5.02539062 L91.0718531,5.91341146 L91.097142,5.91341146 C91.3854354,5.30794271 91.9519068,4.93457031 92.7712671,4.93457031 C93.9446721,4.93457031 94.6173568,5.6813151 94.6173568,6.89729818 L94.6173568,10.3333333 L93.5198186,10.3333333 L93.5198186,7.10921224 C93.5198186,6.31201172 93.1455429,5.87304688 92.3868759,5.87304688 C91.6180933,5.87304688 91.1224309,6.41796875 91.1224309,7.24039714 L91.1224309,10.3333333 L90.0299504,10.3333333 Z M98.0504351,3.76904297 L99.1479733,3.76904297 L99.1479733,5.02539062 L100.159529,5.02539062 L100.159529,5.88818359 L99.1479733,5.88818359 L99.1479733,8.81461589 C99.1479733,9.27376302 99.3502845,9.48063151 99.7953691,9.48063151 C99.9066403,9.48063151 100.083663,9.47054036 100.154472,9.45540365 L100.154472,10.3181966 C100.033085,10.3484701 99.7903114,10.3686523 99.5475379,10.3686523 C98.4702308,10.3686523 98.0504351,9.95996094 98.0504351,8.93570964 L98.0504351,5.88818359 L97.2765947,5.88818359 L97.2765947,5.02539062 L98.0504351,5.02539062 L98.0504351,3.76904297 Z M101.076939,10.3333333 L101.076939,3.05257161 L102.159304,3.05257161 L102.159304,5.91341146 L102.184593,5.91341146 C102.477944,5.29280599 103.059589,4.93457031 103.868834,4.93457031 C105.037181,4.93457031 105.735155,5.71158854 105.735155,6.9124349 L105.735155,10.3333333 L104.637616,10.3333333 L104.637616,7.12434896 C104.637616,6.34228516 104.243109,5.87304688 103.474327,5.87304688 C102.665082,5.87304688 102.16942,6.4280599 102.16942,7.265625 L102.16942,10.3333333 L101.076939,10.3333333 Z M108.994316,5.80745443 C108.230592,5.80745443 107.694467,6.38769531 107.638831,7.18994141 L110.299224,7.18994141 C110.273935,6.37760417 109.758041,5.80745443 108.994316,5.80745443 Z M110.294166,8.7742513 L111.331011,8.7742513 C111.179277,9.7430013 110.258761,10.4342448 109.039837,10.4342448 C107.476983,10.4342448 106.531178,9.37972005 106.531178,7.70458984 C106.531178,6.03955078 107.492156,4.92952474 108.994316,4.92952474 C110.471188,4.92952474 111.391704,5.96891276 111.391704,7.57845052 L111.391704,7.95182292 L107.633774,7.95182292 L107.633774,8.01741536 C107.633774,8.94075521 108.190129,9.55126953 109.065125,9.55126953 C109.687232,9.55126953 110.14749,9.23844401 110.294166,8.7742513 Z" id="Download-on-the"></path>
                </g>
            </g>
        </g>
    </g>
</svg>